<svg xmlns="http://www.w3.org/2000/svg" width="92" height="78"><path fill="#633b8f" d="M 29.138672,0.01074238 C 13.071491,0.01074238 -1.01084e-5,13.082113 0,29.149415 0,45.216595 13.071491,58.29004 29.138672,58.29004 l 0.0078,0 c 3.804671,-10e-4 7.436724,-0.74508 10.771485,-2.078125 1.957997,-0.782643 3.81647,-1.764689 5.539062,-2.933594 -1.314718,-0.252336 -2.60219,-0.617617 -3.865234,-1.105469 -2.52521,-0.977108 -4.798834,-2.366973 -6.818359,-4.166016 -0.389174,-0.338498 -0.758777,-0.689979 -1.119141,-1.048828 -1.444996,0.366814 -2.958558,0.5625 -4.515625,0.5625 -10.129001,0 -18.369141,-8.241718 -18.369141,-18.371093 0,-10.129497 8.24014,-18.369141 18.369141,-18.369141 2.654082,0 5.217815,0.569699 7.552734,1.621094 1.315103,-0.935401 2.723928,-1.725394 4.234375,-2.357422 C 43.63092,8.8889394 46.471121,8.2956379 49.439453,8.2529298 44.062411,3.0162733 36.837229,0.01074238 29.138672,0.01074238 Z m 47.285156,15.32421962 0,3.08789 11.291016,0 0,-3.08789 -11.291016,0 z m 6.017578,3.746093 c -0.860477,0 -1.698188,0.167818 -2.488281,0.5 -0.760404,0.32359 -1.442683,0.783612 -2.035156,1.369141 -0.581991,0.588814 -1.043903,1.271719 -1.369141,2.035156 -0.330666,0.788203 -0.496094,1.625851 -0.496094,2.486328 0,0.860609 0.16637,1.696104 0.498047,2.486328 0.324227,0.76091 0.785565,1.444758 1.371094,2.03711 0.588946,0.581991 1.272356,1.041949 2.035156,1.367187 0.787697,0.33105 1.623392,0.498047 2.484375,0.498047 l 8.253906,0 0,-3.08789 -2.777343,0 c 0.219099,-0.362892 0.401635,-0.74695 0.544922,-1.146485 0.245381,-0.689514 0.36914,-1.41322 0.36914,-2.154297 0,-0.860477 -0.168313,-1.697167 -0.5,-2.488281 -0.324732,-0.761031 -0.784117,-1.445768 -1.36914,-2.037109 -0.588431,-0.581992 -1.273673,-1.042587 -2.03711,-1.367188 -0.788081,-0.331181 -1.623776,-0.498047 -2.484375,-0.498047 z m 0,3.087891 c 0.44477,0 0.87912,0.08831 1.283203,0.255859 0.391064,0.170074 0.746329,0.410071 1.052735,0.710938 0.301361,0.301857 0.541874,0.655811 0.710937,1.046875 0.169437,0.405478 0.253907,0.838986 0.253907,1.289062 0,0.444143 -0.08476,0.87912 -0.251954,1.283203 -0.170447,0.39158 -0.412487,0.743502 -0.710937,1.046875 -0.307801,0.302373 -0.660597,0.539927 -1.050781,0.705078 -0.410401,0.174492 -0.844362,0.265626 -1.28711,0.265626 -0.442626,0 -0.875697,-0.09063 -1.287109,-0.265626 -0.389679,-0.164645 -0.743065,-0.402284 -1.044922,-0.699218 -0.303899,-0.309317 -0.545344,-0.661692 -0.712891,-1.044922 -0.342553,-0.827757 -0.335995,-1.779003 -0.002,-2.576172 0.170074,-0.395117 0.409523,-0.749498 0.708985,-1.048828 0.308811,-0.303889 0.665224,-0.543896 1.048828,-0.710938 0.411543,-0.170579 0.844414,-0.257812 1.289062,-0.257812 z m -59.478515,1.595703 0,10.769531 1.630859,0 2.738281,0 11.634766,0 7.738281,0 c -0.673725,2.19415 -1.758916,4.206551 -3.148437,5.966797 1.831136,1.215535 3.903726,1.826172 6.220703,1.826172 0.276212,0 0.549223,-0.0099 0.818359,-0.02734 0.123444,-0.0071 0.243802,-0.02188 0.365235,-0.0332 0.141263,-0.01395 0.2825,-0.02467 0.421874,-0.04297 0.159582,-0.02133 0.316482,-0.05033 0.472657,-0.07813 0.09613,-0.01678 0.192464,-0.03147 0.287109,-0.05078 0.181446,-0.03659 0.35907,-0.08136 0.53711,-0.126953 0.06399,-0.01698 0.129929,-0.03094 0.193359,-0.04883 0.196356,-0.05398 0.393504,-0.114236 0.585937,-0.179688 0.04053,-0.01334 0.07897,-0.02471 0.119141,-0.03906 0.207222,-0.07288 0.414888,-0.15494 0.617187,-0.240234 0.02274,-0.01011 0.04407,-0.01754 0.06641,-0.02734 0.214177,-0.09179 0.427038,-0.190868 0.634765,-0.296875 0.0091,-0.0051 0.01845,-0.0089 0.02734,-0.01367 0.217078,-0.111567 0.429501,-0.228982 0.640625,-0.355469 0.134331,-0.08026 0.270429,-0.159283 0.402344,-0.246094 0.649343,-0.427838 1.270945,-0.925384 1.859375,-1.505859 0.14923,-0.151757 0.280679,-0.311633 0.419922,-0.466797 1.447058,-2.985233 1.662109,-6.44559 1.662109,-9.396484 l 0,-3.388672 0,-1.998047 -1.318359,0 -0.310547,0 -17.3125,0 -12.734375,0 -3.638672,0 -1.630859,0 z m 59.478515,8.751953 c -0.860103,0 -1.697683,0.167939 -2.488281,0.5 -0.76003,0.323722 -1.442299,0.785191 -2.035156,1.371094 -0.581486,0.58844 -1.042577,1.272225 -1.367188,2.035156 -0.331171,0.788708 -0.498047,1.623271 -0.498047,2.484375 0,1.258627 0.344774,2.427633 1.027344,3.474609 0.662232,1.020192 1.554756,1.799362 2.654297,2.316407 l 0.501953,0.234375 0.578125,-3.136719 -0.220703,-0.158203 c -0.0061,-0.004 -0.585328,-0.416618 -0.923828,-0.931641 -0.354936,-0.549775 -0.527344,-1.137607 -0.527344,-1.798828 0,-0.799574 0.246712,-1.486903 0.757813,-2.103515 0.383613,-0.464481 0.834285,-0.792057 1.36914,-0.988282 l 0,9.386719 0.373047,0.04492 c 0.26573,0.03316 0.535626,0.05078 0.798828,0.05078 0.543327,0 1.080543,-0.06843 1.59961,-0.201172 0.681558,-0.178918 1.322864,-0.463405 1.90625,-0.847656 0.581485,-0.383108 1.09364,-0.8541 1.52539,-1.398438 0.430244,-0.549765 0.768012,-1.160555 1,-1.818359 0.238437,-0.682185 0.359375,-1.397316 0.359375,-2.125 0,-0.860599 -0.167939,-1.695598 -0.5,-2.486328 -0.324732,-0.76091 -0.784238,-1.445263 -1.36914,-2.037109 -0.588431,-0.581992 -1.274178,-1.04195 -2.03711,-1.367188 -0.788708,-0.33105 -1.623776,-0.5 -2.484375,-0.5 z m 1.917969,3.697266 c 0.324227,0.229076 0.59897,0.512841 0.830078,0.861328 0.372747,0.561147 0.552735,1.159823 0.552735,1.832031 -10e-7,0.671703 -0.179988,1.270388 -0.552735,1.832031 -0.230603,0.347477 -0.505851,0.634326 -0.830078,0.863282 l 0,-5.388672 z m -7.935547,9.740234 0,3.089844 11.291016,0 0,-3.089844 -11.291016,0 z m 6.017578,3.748047 c -0.860477,0 -1.698188,0.16636 -2.488281,0.498047 -0.760404,0.324227 -1.442683,0.783611 -2.035156,1.36914 -0.581991,0.587936 -1.043903,1.272357 -1.369141,2.035157 -0.331171,0.788708 -0.496094,1.625345 -0.496094,2.486328 0,0.741198 0.123254,1.467678 0.369141,2.158203 0.142781,0.398655 0.325822,0.780192 0.544922,1.142578 l -0.541016,0 0,3.089844 6.015625,0 c 0.861105,0 1.696236,-0.167808 2.486328,-0.5 0.76091,-0.324227 1.447085,-0.783733 2.039063,-1.369141 0.58186,-0.588935 1.041444,-1.274178 1.367187,-2.037109 0.330676,-0.788577 0.498047,-1.624282 0.498047,-2.484375 0,-0.860478 -0.168313,-1.696225 -0.5,-2.486328 -0.324732,-0.761921 -0.784117,-1.445647 -1.36914,-2.03711 -0.588431,-0.581991 -1.273673,-1.043902 -2.03711,-1.36914 -0.788081,-0.331172 -1.623776,-0.496074 -2.484375,-0.496094 z m 0,3.087891 c 0.44477,0 0.879173,0.08584 1.285156,0.253906 0.395613,0.169568 0.749299,0.40908 1.050782,0.710937 0.301361,0.301483 0.541874,0.655296 0.710937,1.046875 0.169437,0.405469 0.253907,0.839492 0.253907,1.289063 0,0.444769 -0.08476,0.879625 -0.251954,1.283203 -0.170447,0.391569 -0.412034,0.746329 -0.71289,1.052734 -0.300472,0.300351 -0.652195,0.534199 -1.048828,0.699219 -0.410401,0.175512 -0.844362,0.265625 -1.28711,0.265625 -0.442626,0 -0.875697,-0.08962 -1.287109,-0.265625 -0.389679,-0.164009 -0.743065,-0.400331 -1.044922,-0.697265 -0.303899,-0.309318 -0.545344,-0.663767 -0.712891,-1.046876 -0.342553,-0.827877 -0.335995,-1.778487 -0.002,-2.576171 0.170074,-0.394986 0.410029,-0.748051 0.708985,-1.046875 0.308811,-0.303889 0.665224,-0.545344 1.048828,-0.712891 0.411543,-0.170074 0.844414,-0.255859 1.289062,-0.255859 z m 2.078125,10.134765 c -0.165151,0 -0.334906,0.0098 -0.505859,0.03125 -0.513133,0.06934 -1.004406,0.236729 -1.464844,0.501953 -0.301988,0.177908 -0.579701,0.396744 -0.828125,0.644532 -0.389163,0.388668 -0.700617,0.949704 -0.925781,1.666015 -0.106017,0.339137 -0.160156,0.703203 -0.160156,1.085938 0,0.113972 0.0039,0.228476 0.01172,0.355469 0.04761,0.527911 0.190831,1.067654 0.423828,1.599609 0.04124,0.09815 0.073,0.186342 0.0918,0.263672 0.05651,0.226044 0.04184,0.421895 -0.04297,0.61914 -0.07581,0.17247 -0.186776,0.302308 -0.333985,0.390625 -0.140759,0.08026 -0.279094,0.119141 -0.421875,0.119141 -0.08026,0 -0.163779,-0.01238 -0.24414,-0.0332 -0.239943,-0.06439 -0.409761,-0.192083 -0.533203,-0.40625 -0.295924,-0.509089 -0.44336,-1.057845 -0.44336,-1.63086 0,-0.07682 0.0017,-0.154065 0.0078,-0.236328 0.03912,-0.653882 0.245676,-1.225211 0.628906,-1.740234 0.09664,-0.12497 0.200203,-0.245931 0.300781,-0.351562 0.07137,-0.07177 0.142943,-0.1387 0.214844,-0.199219 l 0.326172,-0.275391 -1.996094,-2.36914 -0.328125,0.28125 c -0.139243,0.120037 -0.275409,0.24598 -0.408203,0.378906 -0.974076,0.993908 -1.568695,2.196191 -1.767578,3.574218 -0.0465,0.325238 -0.06836,0.646277 -0.06836,0.955079 0,1.043955 0.260858,2.054153 0.779297,3.005859 0.01931,0.04913 0.04773,0.102654 0.08594,0.164062 0.03477,0.056 0.05906,0.09506 0.0625,0.09961 0.271663,0.446154 0.627497,0.823217 1.046875,1.11914 0.409895,0.298956 0.863853,0.510454 1.34375,0.626954 0.319799,0.0838 0.644033,0.126953 0.964844,0.126953 0.175238,0 0.356863,-0.01494 0.52539,-0.04102 l 0.002,0 c 0.514326,-0.06257 1.006867,-0.228239 1.46875,-0.494141 0.302878,-0.179424 0.58368,-0.39617 0.833985,-0.646484 0.387151,-0.394601 0.697347,-0.953258 0.921875,-1.662109 0.106138,-0.338126 0.160176,-0.702698 0.160156,-1.085938 0,-0.113467 -0.0039,-0.228476 -0.01172,-0.355469 -0.04751,-0.534855 -0.191824,-1.07552 -0.427734,-1.609374 -0.03831,-0.08532 -0.06612,-0.17006 -0.08594,-0.25586 -0.0555,-0.221627 -0.0441,-0.421269 0.04102,-0.61914 0.07591,-0.17248 0.187707,-0.299329 0.34375,-0.392579 0.138364,-0.0838 0.27324,-0.125 0.412109,-0.125 0.07329,0 0.14988,0.01201 0.244141,0.04102 0.239953,0.06399 0.409254,0.194036 0.533203,0.408203 0.336104,0.577442 0.482604,1.209905 0.4375,1.863281 -0.04458,0.65086 -0.25212,1.222663 -0.632813,1.748047 -0.108159,0.144803 -0.225203,0.277227 -0.347656,0.388672 l -0.330078,0.298828 2.199219,2.199219 0.302734,-0.294922 c 1.007302,-0.987469 1.62524,-2.196816 1.837891,-3.599609 0.196861,-1.399003 -0.03511,-2.750649 -0.716797,-4.00586 -0.01526,-0.03558 -0.03807,-0.07773 -0.07031,-0.136718 l -0.01172,-0.02148 c -0.03477,-0.0555 -0.05856,-0.09166 -0.0625,-0.0957 -0.271158,-0.445659 -0.624544,-0.824665 -1.044922,-1.121094 -0.410401,-0.299461 -0.867617,-0.510453 -1.355469,-0.626953 -0.325116,-0.08279 -0.656305,-0.125 -0.982422,-0.125 z"/><path fill="#70c4e1" d="m 49.777344,8.2451174 c -0.114478,0 -0.223797,0.00478 -0.337891,0.00781 -2.968837,0.042556 -5.8076,0.636515 -8.511719,1.7910166 -1.511458,0.632028 -2.920719,1.421515 -4.236328,2.357422 -0.354431,0.252336 -0.699978,0.519416 -1.041015,0.792968 -0.66576,0.533978 -1.308617,1.106413 -1.919922,1.726563 -2.114172,2.082967 -3.738442,4.480265 -4.875,7.193359 -0.232493,0.544712 -0.436163,1.095693 -0.623047,1.650391 l 12.734375,0 c 0.238427,-0.288595 0.492514,-0.56867 0.763672,-0.84375 2.240648,-2.208938 4.922874,-3.314453 8.046875,-3.314453 0.365418,0 0.723641,0.0185 1.076172,0.04883 0.624062,0.05347 1.226081,0.160374 1.8125,0.308594 1.920464,0.483434 3.643775,1.462888 5.160156,2.957031 0.271158,0.27508 0.52575,0.555155 0.763672,0.84375 l 1.318359,0 0,1.998047 c 0.816001,1.572493 1.232422,3.305962 1.232422,5.205078 0,2.913372 -0.973683,5.437534 -2.894531,7.582031 -0.138869,0.15567 -0.271197,0.313592 -0.419922,0.464844 -0.588936,0.580475 -1.210032,1.078527 -1.859375,1.505859 -0.131915,0.08734 -0.268529,0.165864 -0.402344,0.246094 -0.211134,0.126487 -0.423547,0.245845 -0.640625,0.357422 -0.0091,0.004 -0.01804,0.0089 -0.02734,0.01367 -0.208233,0.106138 -0.420588,0.202683 -0.634765,0.294922 -0.02284,0.01011 -0.04366,0.02124 -0.06641,0.03125 -0.202804,0.08511 -0.408517,0.163921 -0.615234,0.236328 -0.04074,0.01445 -0.08107,0.02727 -0.121094,0.04102 -0.193444,0.06439 -0.387628,0.125607 -0.583984,0.179687 -0.06388,0.01779 -0.130367,0.03205 -0.195312,0.04883 -0.177404,0.04508 -0.35617,0.08877 -0.53711,0.125 -0.09512,0.01931 -0.191453,0.0338 -0.287109,0.05078 -0.15668,0.02719 -0.313581,0.0572 -0.472657,0.07813 -0.139374,0.0188 -0.279162,0.02952 -0.419921,0.04297 -0.122433,0.01132 -0.24425,0.02522 -0.367188,0.0332 -0.268762,0.01779 -0.540194,0.02734 -0.816406,0.02734 -2.316977,0 -4.391398,-0.611142 -6.222656,-1.826172 C 42.919176,40.07769 42.308923,39.585644 41.73047,39.014651 40.414356,37.679705 39.5002,36.183368 38.968751,34.534182 l -11.636719,0 c 0.320811,2.053269 0.921772,4.035899 1.806641,5.947266 1.113309,2.439035 2.621127,4.596331 4.513672,6.478516 0.361001,0.358473 0.729967,0.707738 1.11914,1.046874 2.019537,1.798416 4.294598,3.188534 6.820313,4.166016 1.262539,0.487346 2.551142,0.855096 3.865234,1.107422 1.41177,0.270147 2.851999,0.410156 4.322266,0.410156 0.455636,0 0.90533,-0.01965 1.353515,-0.04492 3.558663,-0.200783 6.8967,-1.192845 10.007813,-2.986328 l 0,3.798828 0.05078,0 0,1.753907 c 0,5.719969 -4.652013,10.375 -10.371094,10.375 -4.447068,0 -8.237201,-2.81938 -9.708984,-6.759766 -3.503703,1.371589 -7.296515,2.161304 -11.259766,2.246094 2.565391,9.169835 10.991507,15.916015 20.96875,15.916015 12.006253,0 21.775391,-9.770586 21.775391,-21.777343 l 0,-12.794922 -0.0957,0 0,-12.449219 c 0,-3.092281 -0.599588,-6.044391 -1.798828,-8.853516 -1.135679,-2.713094 -2.761334,-5.110392 -4.875,-7.193359 -1.177376,-1.194176 -2.45791,-2.228491 -3.835938,-3.111328 C 60.928852,11.130408 59.810631,10.538247 58.630859,10.043946 57.471931,9.549776 56.28859,9.163061 55.082031,8.8720705 53.36234,8.4581315 51.596656,8.2451174 49.779297,8.2451174 l -0.002,0 z m 40.492187,6.9023446 c -0.475347,-1e-6 -0.888131,0.171202 -1.224609,0.507812 -0.336104,0.336104 -0.507813,0.746682 -0.507813,1.222656 0,0.476359 0.171709,0.888505 0.507813,1.22461 0.336478,0.336104 0.749262,0.507812 1.224609,0.507812 0.475853,0 0.887494,-0.171708 1.22461,-0.507812 C 91.830245,17.76593 92,17.353278 92,16.87793 92,16.402461 91.830245,15.991884 91.494141,15.655274 91.157025,15.31917 90.745384,15.147462 90.269531,15.147462 Z m 0,30.621093 c -0.475347,0 -0.888131,0.171203 -1.224609,0.507813 -0.336104,0.336104 -0.507813,0.748635 -0.507813,1.224609 0,0.475853 0.171709,0.886552 0.507813,1.222656 0.336478,0.336105 0.749262,0.507813 1.224609,0.507813 0.475853,0 0.887494,-0.171708 1.22461,-0.507813 C 91.830245,48.387024 92,47.976325 92,47.500977 c 0,-0.475469 -0.169755,-0.889953 -0.505859,-1.226562 -0.337116,-0.336105 -0.748757,-0.50586 -1.22461,-0.50586 z"/></svg>
